<svg width="306" height="122" viewBox="0 0 306 122" fill="none" xmlns="http://www.w3.org/2000/svg">
<path fill-rule="evenodd" clip-rule="evenodd" d="M39.0001 49.971L39 78.1987C39 80.9245 41.2098 83.1343 43.9356 83.1343H70.6228C73.3486 83.1343 75.5584 80.9245 75.5584 78.1987L75.5585 43.1541C75.5585 40.4283 73.3487 38.2185 70.6228 38.2185H50.7526L39.0001 49.971Z" fill="url(#paint0_linear)"/>
<rect x="43.5956" y="63.1187" width="27.3673" height="15.5135" rx="3" fill="white"/>
<path d="M52.8281 68.8805L53.8467 68.0741C53.6981 67.8831 53.5178 67.7134 53.3056 67.5648C53.0934 67.4269 52.8599 67.3102 52.6265 67.2147C52.3825 67.1192 52.1278 67.0449 51.8732 67.0025C51.608 66.9601 51.3533 66.9282 51.1199 66.9282C50.5363 66.9282 49.9952 67.0237 49.5072 67.2041C49.0085 67.3951 48.5735 67.6497 48.2128 67.9892C47.852 68.3287 47.5655 68.7425 47.3533 69.2306C47.1411 69.7187 47.0457 70.2598 47.0457 70.8539C47.0457 71.4481 47.1411 71.9786 47.3427 72.4666C47.5337 72.9547 47.8096 73.3685 48.1703 73.7186C48.5204 74.0688 48.9448 74.3446 49.4329 74.5356C49.921 74.7266 50.4621 74.8221 51.0562 74.8221C51.6928 74.8221 52.2552 74.716 52.7432 74.4825C53.2207 74.2491 53.6239 73.9308 53.9634 73.5064L52.8918 72.7531C52.7008 73.0184 52.4461 73.2306 52.1385 73.3897C51.8202 73.5489 51.47 73.6231 51.0668 73.6231C50.6743 73.6231 50.3241 73.5595 50.0165 73.4215C49.6982 73.2942 49.4329 73.1032 49.2101 72.8592C48.9873 72.6152 48.8175 72.3181 48.7008 71.9786C48.5735 71.6391 48.5204 71.2677 48.5204 70.8539C48.5204 70.472 48.5735 70.1112 48.7008 69.7717C48.8281 69.4428 48.9979 69.1563 49.2313 68.9017C49.4647 68.6577 49.7406 68.4667 50.0589 68.3181C50.3772 68.1802 50.7273 68.1059 51.1199 68.1059C51.417 68.1059 51.7353 68.1696 52.0536 68.2969C52.3719 68.4242 52.6265 68.6152 52.8281 68.8805Z" fill="url(#paint1_linear)"/>
<path d="M58.8858 68.6895L59.7558 67.7346C59.4587 67.4693 59.1192 67.2677 58.7266 67.1298C58.334 67.0025 57.9521 66.9282 57.5701 66.9282C57.2306 66.9282 56.8911 66.9813 56.5622 67.0662C56.2333 67.151 55.9362 67.289 55.6815 67.4693C55.4269 67.6497 55.2147 67.8725 55.0556 68.1484C54.8964 68.4242 54.8221 68.7531 54.8221 69.1351C54.8221 69.4958 54.8752 69.7929 54.9919 70.0263C55.098 70.2598 55.2465 70.4614 55.4269 70.6205C55.6073 70.7903 55.8089 70.9176 56.0423 71.0131C56.2651 71.1192 56.4879 71.2041 56.7213 71.2677L57.3898 71.4905C57.602 71.5648 57.7823 71.6497 57.9415 71.7452C58.09 71.8407 58.2173 71.9574 58.3128 72.0847C58.3977 72.212 58.4508 72.3818 58.4508 72.5727C58.4508 72.7849 58.4083 72.9547 58.3234 73.0926C58.2386 73.2306 58.1325 73.3473 58.0051 73.4322C57.8778 73.5276 57.7293 73.5913 57.5701 73.6337C57.4004 73.6762 57.2412 73.6868 57.0927 73.6868C56.7956 73.6868 56.4879 73.6125 56.1802 73.464C55.8725 73.3154 55.6285 73.1139 55.4481 72.8592L54.4932 73.7505C54.7903 74.1112 55.1723 74.3764 55.6391 74.5568C56.1059 74.7372 56.5834 74.8221 57.0715 74.8221C57.4322 74.8221 57.7823 74.7796 58.1218 74.6735C58.4508 74.578 58.7372 74.4295 58.9919 74.2279C59.2359 74.0369 59.4375 73.7823 59.586 73.4852C59.7346 73.1881 59.8088 72.8274 59.8088 72.4242C59.8088 72.0635 59.7346 71.7558 59.5966 71.5011C59.4587 71.2571 59.2783 71.0555 59.0661 70.8858C58.8539 70.7266 58.6099 70.5993 58.3553 70.4932C58.1006 70.3977 57.846 70.3128 57.6126 70.2279C57.4004 70.1643 57.1988 70.1006 57.029 70.037C56.8486 69.9733 56.7001 69.899 56.5728 69.8141C56.4455 69.7293 56.35 69.6338 56.2863 69.5065C56.212 69.3897 56.1802 69.2412 56.1802 69.0714C56.1802 68.8911 56.212 68.7319 56.2969 68.6046C56.3818 68.4773 56.4879 68.3712 56.6152 68.2863C56.7425 68.2014 56.8805 68.1484 57.0396 68.1059C57.1882 68.0635 57.3473 68.0423 57.5065 68.0423C57.7611 68.0423 58.0264 68.1059 58.281 68.2333C58.5356 68.3606 58.7372 68.5091 58.8858 68.6895Z" fill="url(#paint2_linear)"/>
<path d="M60.3722 67.1192L63.343 74.6311H64.4995L67.5128 67.1192H66.0698L63.9796 72.9017H63.9372L61.8683 67.1192H60.3722Z" fill="url(#paint3_linear)"/>
<path fill-rule="evenodd" clip-rule="evenodd" d="M38.9439 49.9062L50.7476 38.1025L50.7499 38.1137L50.7499 44.9706C50.7499 47.6965 48.5401 49.9062 45.8142 49.9062L38.9439 49.9062Z" fill="url(#paint4_linear)"/>
<path d="M89.104 59.3822V60.4982H89.662C90.202 60.4982 90.724 60.5522 91.21 60.6242C91.696 60.6962 92.128 60.8402 92.488 61.0382C92.848 61.2362 93.154 61.5062 93.37 61.8302C93.586 62.1722 93.694 62.5862 93.694 63.0902C93.694 63.9182 93.406 64.5842 92.848 65.0882C92.272 65.5922 91.48 65.8262 90.436 65.8262C89.968 65.8262 89.554 65.7722 89.194 65.6642C88.834 65.5562 88.528 65.4122 88.276 65.2142C88.006 65.0342 87.772 64.8002 87.592 64.5302C87.412 64.2602 87.25 63.9542 87.106 63.6122L85.99 64.2782C86.17 64.6742 86.404 65.0522 86.656 65.3762C86.908 65.7002 87.214 65.9882 87.574 66.2222C87.916 66.4562 88.312 66.6362 88.78 66.7622C89.23 66.8882 89.752 66.9422 90.328 66.9422C90.976 66.9422 91.57 66.8522 92.146 66.6722C92.722 66.4922 93.208 66.2402 93.64 65.8982C94.054 65.5742 94.378 65.1602 94.63 64.6922C94.864 64.2242 94.99 63.6842 94.99 63.0902C94.99 62.5322 94.882 62.0642 94.666 61.6682C94.45 61.2902 94.198 60.9842 93.874 60.7322C93.55 60.4982 93.208 60.3182 92.812 60.1922C92.416 60.0662 92.056 59.9762 91.696 59.9222V59.8862C92.002 59.8142 92.308 59.6882 92.614 59.5082C92.92 59.3282 93.19 59.1122 93.442 58.8602C93.694 58.6082 93.892 58.3382 94.036 58.0142C94.18 57.6902 94.27 57.3482 94.27 56.9702C94.27 56.4302 94.162 55.9442 93.982 55.5122C93.784 55.0802 93.514 54.7202 93.172 54.4322C92.812 54.1442 92.398 53.9282 91.912 53.7842C91.426 53.6402 90.904 53.5502 90.328 53.5502C89.482 53.5502 88.744 53.7302 88.096 54.0542C87.448 54.3782 86.944 54.8822 86.548 55.5662L87.556 56.3222C87.808 55.8362 88.15 55.4402 88.6 55.1162C89.05 54.8102 89.59 54.6482 90.22 54.6482C91.03 54.6482 91.696 54.8642 92.2 55.2602C92.704 55.6562 92.956 56.2502 92.956 57.0422C92.956 57.4742 92.848 57.8342 92.668 58.1222C92.47 58.4282 92.218 58.6802 91.912 58.8602C91.606 59.0402 91.264 59.1842 90.868 59.2562C90.472 59.3462 90.058 59.3822 89.662 59.3822H89.104ZM103.588 61.1822V61.4522C102.814 61.4522 102.076 61.4882 101.356 61.5422C100.636 61.5962 100.006 61.7222 99.4659 61.9022C98.9079 62.0822 98.4579 62.3702 98.1339 62.7482C97.8099 63.1262 97.6479 63.6302 97.6479 64.2782C97.6479 64.7462 97.7379 65.1422 97.9179 65.4662C98.0979 65.7902 98.3319 66.0602 98.6199 66.2582C98.9079 66.4742 99.2139 66.6182 99.5559 66.7082C99.8979 66.7982 100.24 66.8342 100.564 66.8342C101.248 66.8342 101.824 66.7262 102.31 66.4742C102.796 66.2222 103.228 65.8262 103.624 65.2502H103.66C103.66 65.4842 103.66 65.7182 103.696 65.9522C103.714 66.2042 103.75 66.4202 103.786 66.6182H104.884C104.83 66.3842 104.794 66.0962 104.776 65.7362C104.74 65.3942 104.74 65.0522 104.74 64.7282V61.0382C104.74 60.5342 104.65 60.0842 104.488 59.6882C104.308 59.3102 104.074 58.9862 103.786 58.7342C103.48 58.4822 103.138 58.3022 102.742 58.1762C102.346 58.0502 101.914 57.9782 101.464 57.9782C100.744 57.9782 100.096 58.1042 99.5199 58.3202C98.9439 58.5542 98.4939 58.8422 98.1519 59.1842L98.8359 59.9942C99.1239 59.7062 99.5019 59.4542 99.9339 59.2742C100.366 59.0942 100.834 59.0042 101.338 59.0042C102.058 59.0042 102.616 59.1842 103.012 59.5442C103.39 59.9042 103.588 60.4622 103.588 61.1822ZM103.228 62.4062H103.588V63.0362C103.588 63.4142 103.516 63.7742 103.408 64.0982C103.282 64.4402 103.102 64.7462 102.886 64.9982C102.652 65.2502 102.364 65.4662 102.04 65.6102C101.698 65.7542 101.32 65.8262 100.888 65.8262C100.636 65.8262 100.402 65.8082 100.168 65.7542C99.9339 65.7002 99.7179 65.6102 99.5379 65.4842C99.3399 65.3582 99.1779 65.1962 99.0699 64.9802C98.9619 64.7822 98.9079 64.5302 98.9079 64.2242C98.9079 63.8282 99.0339 63.5222 99.3039 63.2702C99.5559 63.0362 99.8979 62.8562 100.312 62.7302C100.726 62.6042 101.194 62.5142 101.698 62.4782C102.202 62.4422 102.724 62.4062 103.228 62.4062ZM109.488 66.6182V59.2202H113.484V58.1942H108.264V66.6182H109.488ZM116.982 70.9382V65.1962H117.036C117.378 65.7362 117.846 66.1322 118.422 66.4202C118.998 66.7082 119.592 66.8342 120.204 66.8342C120.852 66.8342 121.446 66.7262 121.986 66.4922C122.526 66.2762 122.976 65.9522 123.354 65.5562C123.732 65.1602 124.02 64.6922 124.236 64.1522C124.452 63.6122 124.56 63.0362 124.56 62.4062C124.56 61.7942 124.452 61.2002 124.236 60.6602C124.02 60.1202 123.732 59.6522 123.354 59.2562C122.976 58.8602 122.526 58.5542 121.986 58.3202C121.446 58.1042 120.852 57.9782 120.204 57.9782C119.592 57.9782 118.998 58.1222 118.422 58.4102C117.846 58.6982 117.378 59.1122 117.036 59.6522H116.982V58.1942H115.758V70.9382H116.982ZM123.264 62.4062C123.264 62.8742 123.192 63.3242 123.048 63.7382C122.904 64.1522 122.688 64.5122 122.418 64.8182C122.148 65.1242 121.824 65.3582 121.428 65.5382C121.032 65.7182 120.582 65.7902 120.078 65.7902C119.61 65.7902 119.178 65.7182 118.782 65.5382C118.386 65.3582 118.044 65.1242 117.756 64.8182C117.468 64.5302 117.234 64.1702 117.072 63.7562C116.91 63.3422 116.838 62.8922 116.838 62.4062C116.838 61.9382 116.91 61.4882 117.072 61.0742C117.234 60.6602 117.468 60.3002 117.756 59.9942C118.044 59.6882 118.386 59.4542 118.782 59.2742C119.178 59.0942 119.61 59.0042 120.078 59.0042C120.582 59.0042 121.032 59.0942 121.428 59.2742C121.824 59.4542 122.148 59.7062 122.418 60.0122C122.688 60.3182 122.904 60.6782 123.048 61.0922C123.192 61.5062 123.264 61.9382 123.264 62.4062ZM130.525 65.3042L127.663 58.1942H126.295L129.895 66.6002L129.211 68.3642C129.031 68.8502 128.815 69.2282 128.581 69.4802C128.329 69.7322 128.005 69.8582 127.591 69.8582C127.267 69.8582 126.979 69.8222 126.691 69.7142L126.565 70.8302C126.925 70.9022 127.285 70.9382 127.663 70.9382C128.383 70.9382 128.941 70.7582 129.337 70.3622C129.733 69.9662 130.057 69.4442 130.309 68.7962L134.503 58.1942H133.171L130.561 65.3042H130.525ZM137.111 60.1382C137.183 59.9042 137.327 59.6882 137.525 59.4902C137.669 59.3282 137.885 59.1842 138.173 59.0402C138.443 58.8962 138.803 58.8242 139.235 58.8242C139.559 58.8242 139.829 58.8782 140.081 58.9682C140.315 59.0582 140.513 59.1662 140.657 59.3102C140.801 59.4542 140.927 59.6342 140.999 59.8142C141.071 60.0122 141.107 60.2102 141.107 60.4082C141.107 60.9122 140.909 61.2902 140.549 61.5422C140.171 61.7942 139.721 61.9022 139.181 61.9022H138.281V62.8382H139.361C140.081 62.8382 140.603 62.9822 140.909 63.2702C141.215 63.5582 141.377 63.8822 141.377 64.2782C141.377 64.7642 141.179 65.1422 140.819 65.4302C140.441 65.7182 139.937 65.8622 139.289 65.8622C138.821 65.8622 138.425 65.8082 138.119 65.6642C137.813 65.5382 137.579 65.3942 137.417 65.2142C137.201 65.0342 137.039 64.8002 136.949 64.5482L135.959 65.1602C136.085 65.4842 136.301 65.7722 136.589 66.0062C136.823 66.2222 137.147 66.4022 137.561 66.5822C137.975 66.7622 138.515 66.8342 139.163 66.8342C140.207 66.8342 141.053 66.6002 141.665 66.1142C142.277 65.6462 142.583 65.0162 142.583 64.2602C142.583 63.9362 142.511 63.6482 142.385 63.3962C142.241 63.1622 142.061 62.9642 141.845 62.8022C141.629 62.6582 141.359 62.5322 141.071 62.4602C140.765 62.3882 140.459 62.3522 140.135 62.3522V62.2982C140.423 62.2982 140.711 62.2262 140.981 62.1182C141.233 62.0102 141.467 61.8662 141.665 61.6862C141.845 61.5062 142.007 61.3082 142.115 61.0562C142.223 60.8222 142.277 60.5702 142.277 60.2822C142.277 60.0302 142.205 59.7602 142.097 59.4722C141.989 59.1842 141.809 58.9322 141.575 58.6982C141.323 58.4642 141.017 58.2662 140.639 58.1222C140.243 57.9782 139.793 57.9062 139.253 57.9062C138.641 57.9062 138.137 57.9962 137.741 58.1762C137.345 58.3562 137.021 58.5362 136.787 58.7342C136.499 58.9862 136.301 59.2562 136.157 59.5622L137.111 60.1382ZM146.786 61.6502V58.1942H145.562V66.6182H146.786V62.6942C147.434 62.7122 148.028 62.7842 148.55 62.9102C149.054 63.0362 149.504 63.2522 149.9 63.5582C150.296 63.8642 150.62 64.2602 150.872 64.7642C151.124 65.2682 151.34 65.8802 151.52 66.6182H152.888C152.564 65.3582 152.114 64.3682 151.574 63.6122C151.016 62.8562 150.242 62.3342 149.252 62.0102L152.528 58.1942H151.16L148.136 61.7582C147.704 61.6862 147.254 61.6502 146.786 61.6502ZM161.16 61.1822V61.4522C160.386 61.4522 159.648 61.4882 158.928 61.5422C158.208 61.5962 157.578 61.7222 157.038 61.9022C156.48 62.0822 156.03 62.3702 155.706 62.7482C155.382 63.1262 155.22 63.6302 155.22 64.2782C155.22 64.7462 155.31 65.1422 155.49 65.4662C155.67 65.7902 155.904 66.0602 156.192 66.2582C156.48 66.4742 156.786 66.6182 157.128 66.7082C157.47 66.7982 157.812 66.8342 158.136 66.8342C158.82 66.8342 159.396 66.7262 159.882 66.4742C160.368 66.2222 160.8 65.8262 161.196 65.2502H161.232C161.232 65.4842 161.232 65.7182 161.268 65.9522C161.286 66.2042 161.322 66.4202 161.358 66.6182H162.456C162.402 66.3842 162.366 66.0962 162.348 65.7362C162.312 65.3942 162.312 65.0522 162.312 64.7282V61.0382C162.312 60.5342 162.222 60.0842 162.06 59.6882C161.88 59.3102 161.646 58.9862 161.358 58.7342C161.052 58.4822 160.71 58.3022 160.314 58.1762C159.918 58.0502 159.486 57.9782 159.036 57.9782C158.316 57.9782 157.668 58.1042 157.092 58.3202C156.516 58.5542 156.066 58.8422 155.724 59.1842L156.408 59.9942C156.696 59.7062 157.074 59.4542 157.506 59.2742C157.938 59.0942 158.406 59.0042 158.91 59.0042C159.63 59.0042 160.188 59.1842 160.584 59.5442C160.962 59.9042 161.16 60.4622 161.16 61.1822ZM160.8 62.4062H161.16V63.0362C161.16 63.4142 161.088 63.7742 160.98 64.0982C160.854 64.4402 160.674 64.7462 160.458 64.9982C160.224 65.2502 159.936 65.4662 159.612 65.6102C159.27 65.7542 158.892 65.8262 158.46 65.8262C158.208 65.8262 157.974 65.8082 157.74 65.7542C157.506 65.7002 157.29 65.6102 157.11 65.4842C156.912 65.3582 156.75 65.1962 156.642 64.9802C156.534 64.7822 156.48 64.5302 156.48 64.2242C156.48 63.8282 156.606 63.5222 156.876 63.2702C157.128 63.0362 157.47 62.8562 157.884 62.7302C158.298 62.6042 158.766 62.5142 159.27 62.4782C159.774 62.4422 160.296 62.4062 160.8 62.4062ZM177.206 59.7602V66.6182H178.466V58.1942H177.206L172.04 64.8002V58.1942H170.78V66.6182H172.04L177.206 59.7602ZM182.322 60.1382C182.394 59.9042 182.538 59.6882 182.736 59.4902C182.88 59.3282 183.096 59.1842 183.384 59.0402C183.654 58.8962 184.014 58.8242 184.446 58.8242C184.77 58.8242 185.04 58.8782 185.292 58.9682C185.526 59.0582 185.724 59.1662 185.868 59.3102C186.012 59.4542 186.138 59.6342 186.21 59.8142C186.282 60.0122 186.318 60.2102 186.318 60.4082C186.318 60.9122 186.12 61.2902 185.76 61.5422C185.382 61.7942 184.932 61.9022 184.392 61.9022H183.492V62.8382H184.572C185.292 62.8382 185.814 62.9822 186.12 63.2702C186.426 63.5582 186.588 63.8822 186.588 64.2782C186.588 64.7642 186.39 65.1422 186.03 65.4302C185.652 65.7182 185.148 65.8622 184.5 65.8622C184.032 65.8622 183.636 65.8082 183.33 65.6642C183.024 65.5382 182.79 65.3942 182.628 65.2142C182.412 65.0342 182.25 64.8002 182.16 64.5482L181.17 65.1602C181.296 65.4842 181.512 65.7722 181.8 66.0062C182.034 66.2222 182.358 66.4022 182.772 66.5822C183.186 66.7622 183.726 66.8342 184.374 66.8342C185.418 66.8342 186.264 66.6002 186.876 66.1142C187.488 65.6462 187.794 65.0162 187.794 64.2602C187.794 63.9362 187.722 63.6482 187.596 63.3962C187.452 63.1622 187.272 62.9642 187.056 62.8022C186.84 62.6582 186.57 62.5322 186.282 62.4602C185.976 62.3882 185.67 62.3522 185.346 62.3522V62.2982C185.634 62.2982 185.922 62.2262 186.192 62.1182C186.444 62.0102 186.678 61.8662 186.876 61.6862C187.056 61.5062 187.218 61.3082 187.326 61.0562C187.434 60.8222 187.488 60.5702 187.488 60.2822C187.488 60.0302 187.416 59.7602 187.308 59.4722C187.2 59.1842 187.02 58.9322 186.786 58.6982C186.534 58.4642 186.228 58.2662 185.85 58.1222C185.454 57.9782 185.004 57.9062 184.464 57.9062C183.852 57.9062 183.348 57.9962 182.952 58.1762C182.556 58.3562 182.232 58.5362 181.998 58.7342C181.71 58.9862 181.512 59.2562 181.368 59.5622L182.322 60.1382ZM199.19 56.5022V66.6182H201.35V53.8742H199.388L195.41 57.0782L196.67 58.5722L199.19 56.5022ZM217.072 64.7282L215.452 63.3422C215.092 63.8462 214.642 64.2422 214.102 64.5122C213.544 64.7822 212.932 64.9082 212.284 64.9082C211.6 64.9082 211.006 64.8002 210.466 64.5482C209.926 64.3142 209.458 63.9902 209.08 63.5582C208.702 63.1442 208.414 62.6582 208.198 62.0822C207.982 61.5062 207.892 60.8942 207.892 60.2282C207.892 59.5802 207.982 58.9862 208.198 58.4102C208.414 57.8522 208.702 57.3662 209.098 56.9342C209.476 56.5202 209.944 56.1962 210.484 55.9442C211.024 55.6922 211.618 55.5662 212.302 55.5662C212.95 55.5662 213.526 55.7102 214.066 55.9622C214.588 56.2322 214.984 56.5742 215.272 56.9702L216.892 55.4762C216.388 54.8642 215.722 54.3962 214.876 54.0542C214.03 53.7122 213.148 53.5322 212.23 53.5322C211.258 53.5322 210.376 53.6942 209.548 54.0182C208.72 54.3422 208 54.8102 207.388 55.3862C206.776 55.9802 206.308 56.6822 205.966 57.5102C205.606 58.3382 205.444 59.2382 205.444 60.2282C205.444 61.2182 205.606 62.1182 205.948 62.9462C206.29 63.7742 206.758 64.4942 207.37 65.0882C207.964 65.6822 208.684 66.1502 209.512 66.4742C210.34 66.7982 211.24 66.9602 212.212 66.9602C213.328 66.9602 214.282 66.7622 215.092 66.3302C215.902 65.9162 216.568 65.3762 217.072 64.7282Z" fill="black"/>
<path d="M12 53.6182V67.6182M5 60.6182H19" stroke="url(#paint5_linear)" stroke-width="2" stroke-linecap="round" stroke-linejoin="round"/>
<defs>
<linearGradient id="paint0_linear" x1="57.2792" y1="38.2185" x2="57.2792" y2="83.1343" gradientUnits="userSpaceOnUse">
<stop stop-color="#00B8F0"/>
<stop offset="0.0001" stop-color="#00B8F0"/>
<stop offset="0.739583" stop-color="#B2EEFC"/>
</linearGradient>
<linearGradient id="paint1_linear" x1="57.2792" y1="66.9282" x2="57.2792" y2="74.8221" gradientUnits="userSpaceOnUse">
<stop stop-color="#F86CA2"/>
<stop offset="1" stop-color="#FA9EC2"/>
</linearGradient>
<linearGradient id="paint2_linear" x1="57.2792" y1="66.9282" x2="57.2792" y2="74.8221" gradientUnits="userSpaceOnUse">
<stop stop-color="#F86CA2"/>
<stop offset="1" stop-color="#FA9EC2"/>
</linearGradient>
<linearGradient id="paint3_linear" x1="57.2792" y1="66.9282" x2="57.2792" y2="74.8221" gradientUnits="userSpaceOnUse">
<stop stop-color="#F86CA2"/>
<stop offset="1" stop-color="#FA9EC2"/>
</linearGradient>
<linearGradient id="paint4_linear" x1="44.8469" y1="49.9062" x2="44.8469" y2="38.1025" gradientUnits="userSpaceOnUse">
<stop stop-color="#1792C7"/>
<stop offset="1" stop-color="#00B8F0"/>
</linearGradient>
<linearGradient id="paint5_linear" x1="12" y1="53.6182" x2="12" y2="67.6182" gradientUnits="userSpaceOnUse">
<stop stop-color="#1792C7"/>
<stop offset="1" stop-color="#00B8F0"/>
</linearGradient>
</defs>
</svg>
