<svg width="218" height="55" viewBox="0 0 218 55" fill="none" xmlns="http://www.w3.org/2000/svg">
<path fill-rule="evenodd" clip-rule="evenodd" d="M39.0001 16.8524L39 45.08C39 47.8059 41.2098 50.0156 43.9356 50.0156H70.6228C73.3486 50.0156 75.5584 47.8059 75.5584 45.08L75.5585 10.0355C75.5585 7.30961 73.3487 5.09986 70.6228 5.09985H50.7526L39.0001 16.8524Z" fill="url(#paint0_linear_1503:2695)"/>
<rect x="43.5957" y="30" width="27.3673" height="15.5135" rx="3" fill="white"/>
<path d="M52.8281 35.7618L53.8467 34.9555C53.6981 34.7645 53.5178 34.5947 53.3056 34.4462C53.0934 34.3082 52.8599 34.1915 52.6265 34.096C52.3825 34.0006 52.1278 33.9263 51.8732 33.8838C51.608 33.8414 51.3533 33.8096 51.1199 33.8096C50.5363 33.8096 49.9952 33.9051 49.5072 34.0854C49.0085 34.2764 48.5735 34.5311 48.2128 34.8706C47.852 35.2101 47.5655 35.6239 47.3533 36.1119C47.1411 36.6 47.0457 37.1411 47.0457 37.7353C47.0457 38.3294 47.1411 38.8599 47.3427 39.348C47.5337 39.8361 47.8096 40.2498 48.1703 40.6C48.5204 40.9501 48.9448 41.226 49.4329 41.4169C49.921 41.6079 50.4621 41.7034 51.0562 41.7034C51.6928 41.7034 52.2552 41.5973 52.7432 41.3639C53.2207 41.1305 53.6239 40.8122 53.9634 40.3878L52.8918 39.6345C52.7008 39.8997 52.4461 40.1119 52.1385 40.2711C51.8202 40.4302 51.47 40.5045 51.0668 40.5045C50.6743 40.5045 50.3241 40.4408 50.0165 40.3029C49.6982 40.1756 49.4329 39.9846 49.2101 39.7406C48.9873 39.4965 48.8175 39.1995 48.7008 38.8599C48.5735 38.5204 48.5204 38.1491 48.5204 37.7353C48.5204 37.3533 48.5735 36.9926 48.7008 36.6531C48.8281 36.3241 48.9979 36.0377 49.2313 35.783C49.4647 35.539 49.7406 35.348 50.0589 35.1995C50.3772 35.0616 50.7273 34.9873 51.1199 34.9873C51.417 34.9873 51.7353 35.0509 52.0536 35.1783C52.3719 35.3056 52.6265 35.4966 52.8281 35.7618Z" fill="url(#paint1_linear_1503:2695)"/>
<path d="M58.8858 35.5708L59.7558 34.6159C59.4587 34.3507 59.1192 34.1491 58.7266 34.0112C58.334 33.8838 57.9521 33.8096 57.5701 33.8096C57.2306 33.8096 56.8911 33.8626 56.5622 33.9475C56.2333 34.0324 55.9362 34.1703 55.6815 34.3507C55.4269 34.5311 55.2147 34.7539 55.0556 35.0297C54.8964 35.3056 54.8221 35.6345 54.8221 36.0165C54.8221 36.3772 54.8752 36.6743 54.9919 36.9077C55.098 37.1411 55.2465 37.3427 55.4269 37.5019C55.6073 37.6716 55.8089 37.7989 56.0423 37.8944C56.2651 38.0005 56.4879 38.0854 56.7213 38.1491L57.3898 38.3719C57.602 38.4461 57.7823 38.531 57.9415 38.6265C58.09 38.722 58.2173 38.8387 58.3128 38.966C58.3977 39.0934 58.4508 39.2631 58.4508 39.4541C58.4508 39.6663 58.4083 39.8361 58.3234 39.974C58.2386 40.1119 58.1325 40.2286 58.0051 40.3135C57.8778 40.409 57.7293 40.4727 57.5701 40.5151C57.4004 40.5575 57.2412 40.5681 57.0927 40.5681C56.7956 40.5681 56.4879 40.4939 56.1802 40.3453C55.8725 40.1968 55.6285 39.9952 55.4481 39.7406L54.4932 40.6318C54.7903 40.9925 55.1723 41.2578 55.6391 41.4382C56.1059 41.6185 56.5834 41.7034 57.0715 41.7034C57.4322 41.7034 57.7823 41.661 58.1218 41.5549C58.4508 41.4594 58.7372 41.3108 58.9919 41.1093C59.2359 40.9183 59.4375 40.6636 59.586 40.3666C59.7346 40.0695 59.8088 39.7087 59.8088 39.3056C59.8088 38.9448 59.7346 38.6371 59.5966 38.3825C59.4587 38.1385 59.2783 37.9369 59.0661 37.7671C58.8539 37.608 58.6099 37.4806 58.3553 37.3745C58.1006 37.279 57.846 37.1942 57.6126 37.1093C57.4004 37.0456 57.1988 36.982 57.029 36.9183C56.8486 36.8546 56.7001 36.7804 56.5728 36.6955C56.4455 36.6106 56.35 36.5151 56.2863 36.3878C56.212 36.2711 56.1802 36.1226 56.1802 35.9528C56.1802 35.7724 56.212 35.6133 56.2969 35.486C56.3818 35.3586 56.4879 35.2525 56.6152 35.1677C56.7425 35.0828 56.8805 35.0297 57.0396 34.9873C57.1882 34.9448 57.3473 34.9236 57.5065 34.9236C57.7611 34.9236 58.0264 34.9873 58.281 35.1146C58.5356 35.2419 58.7372 35.3905 58.8858 35.5708Z" fill="url(#paint2_linear_1503:2695)"/>
<path d="M60.3722 34.0006L63.343 41.5124H64.4995L67.5128 34.0006H66.0698L63.9796 39.783H63.9372L61.8683 34.0006H60.3722Z" fill="url(#paint3_linear_1503:2695)"/>
<path fill-rule="evenodd" clip-rule="evenodd" d="M38.944 16.7877L50.7477 4.98398L50.75 4.99514L50.75 11.8521C50.75 14.578 48.5402 16.7877 45.8144 16.7877L38.944 16.7877Z" fill="url(#paint4_linear_1503:2695)"/>
<path d="M89.104 26.2635V27.3795H89.662C90.202 27.3795 90.724 27.4335 91.21 27.5055C91.696 27.5775 92.128 27.7215 92.488 27.9195C92.848 28.1175 93.154 28.3875 93.37 28.7115C93.586 29.0535 93.694 29.4675 93.694 29.9715C93.694 30.7995 93.406 31.4655 92.848 31.9695C92.272 32.4735 91.48 32.7075 90.436 32.7075C89.968 32.7075 89.554 32.6535 89.194 32.5455C88.834 32.4375 88.528 32.2935 88.276 32.0955C88.006 31.9155 87.772 31.6815 87.592 31.4115C87.412 31.1415 87.25 30.8355 87.106 30.4935L85.99 31.1595C86.17 31.5555 86.404 31.9335 86.656 32.2575C86.908 32.5815 87.214 32.8695 87.574 33.1035C87.916 33.3375 88.312 33.5175 88.78 33.6435C89.23 33.7695 89.752 33.8235 90.328 33.8235C90.976 33.8235 91.57 33.7335 92.146 33.5535C92.722 33.3735 93.208 33.1215 93.64 32.7795C94.054 32.4555 94.378 32.0415 94.63 31.5735C94.864 31.1055 94.99 30.5655 94.99 29.9715C94.99 29.4135 94.882 28.9455 94.666 28.5495C94.45 28.1715 94.198 27.8655 93.874 27.6135C93.55 27.3795 93.208 27.1995 92.812 27.0735C92.416 26.9475 92.056 26.8575 91.696 26.8035V26.7675C92.002 26.6955 92.308 26.5695 92.614 26.3895C92.92 26.2095 93.19 25.9935 93.442 25.7415C93.694 25.4895 93.892 25.2195 94.036 24.8955C94.18 24.5715 94.27 24.2295 94.27 23.8515C94.27 23.3115 94.162 22.8255 93.982 22.3935C93.784 21.9615 93.514 21.6015 93.172 21.3135C92.812 21.0255 92.398 20.8095 91.912 20.6655C91.426 20.5215 90.904 20.4315 90.328 20.4315C89.482 20.4315 88.744 20.6115 88.096 20.9355C87.448 21.2595 86.944 21.7635 86.548 22.4475L87.556 23.2035C87.808 22.7175 88.15 22.3215 88.6 21.9975C89.05 21.6915 89.59 21.5295 90.22 21.5295C91.03 21.5295 91.696 21.7455 92.2 22.1415C92.704 22.5375 92.956 23.1315 92.956 23.9235C92.956 24.3555 92.848 24.7155 92.668 25.0035C92.47 25.3095 92.218 25.5615 91.912 25.7415C91.606 25.9215 91.264 26.0655 90.868 26.1375C90.472 26.2275 90.058 26.2635 89.662 26.2635H89.104ZM103.588 28.0635V28.3335C102.814 28.3335 102.076 28.3695 101.356 28.4235C100.636 28.4775 100.006 28.6035 99.4659 28.7835C98.9079 28.9635 98.4579 29.2515 98.1339 29.6295C97.8099 30.0075 97.6479 30.5115 97.6479 31.1595C97.6479 31.6275 97.7379 32.0235 97.9179 32.3475C98.0979 32.6715 98.3319 32.9415 98.6199 33.1395C98.9079 33.3555 99.2139 33.4995 99.5559 33.5895C99.8979 33.6795 100.24 33.7155 100.564 33.7155C101.248 33.7155 101.824 33.6075 102.31 33.3555C102.796 33.1035 103.228 32.7075 103.624 32.1315H103.66C103.66 32.3655 103.66 32.5995 103.696 32.8335C103.714 33.0855 103.75 33.3015 103.786 33.4995H104.884C104.83 33.2655 104.794 32.9775 104.776 32.6175C104.74 32.2755 104.74 31.9335 104.74 31.6095V27.9195C104.74 27.4155 104.65 26.9655 104.488 26.5695C104.308 26.1915 104.074 25.8675 103.786 25.6155C103.48 25.3635 103.138 25.1835 102.742 25.0575C102.346 24.9315 101.914 24.8595 101.464 24.8595C100.744 24.8595 100.096 24.9855 99.5199 25.2015C98.9439 25.4355 98.4939 25.7235 98.1519 26.0655L98.8359 26.8755C99.1239 26.5875 99.5019 26.3355 99.9339 26.1555C100.366 25.9755 100.834 25.8855 101.338 25.8855C102.058 25.8855 102.616 26.0655 103.012 26.4255C103.39 26.7855 103.588 27.3435 103.588 28.0635ZM103.228 29.2875H103.588V29.9175C103.588 30.2955 103.516 30.6555 103.408 30.9795C103.282 31.3215 103.102 31.6275 102.886 31.8795C102.652 32.1315 102.364 32.3475 102.04 32.4915C101.698 32.6355 101.32 32.7075 100.888 32.7075C100.636 32.7075 100.402 32.6895 100.168 32.6355C99.9339 32.5815 99.7179 32.4915 99.5379 32.3655C99.3399 32.2395 99.1779 32.0775 99.0699 31.8615C98.9619 31.6635 98.9079 31.4115 98.9079 31.1055C98.9079 30.7095 99.0339 30.4035 99.3039 30.1515C99.5559 29.9175 99.8979 29.7375 100.312 29.6115C100.726 29.4855 101.194 29.3955 101.698 29.3595C102.202 29.3235 102.724 29.2875 103.228 29.2875ZM109.488 33.4995V26.1015H113.484V25.0755H108.264V33.4995H109.488ZM116.982 37.8195V32.0775H117.036C117.378 32.6175 117.846 33.0135 118.422 33.3015C118.998 33.5895 119.592 33.7155 120.204 33.7155C120.852 33.7155 121.446 33.6075 121.986 33.3735C122.526 33.1575 122.976 32.8335 123.354 32.4375C123.732 32.0415 124.02 31.5735 124.236 31.0335C124.452 30.4935 124.56 29.9175 124.56 29.2875C124.56 28.6755 124.452 28.0815 124.236 27.5415C124.02 27.0015 123.732 26.5335 123.354 26.1375C122.976 25.7415 122.526 25.4355 121.986 25.2015C121.446 24.9855 120.852 24.8595 120.204 24.8595C119.592 24.8595 118.998 25.0035 118.422 25.2915C117.846 25.5795 117.378 25.9935 117.036 26.5335H116.982V25.0755H115.758V37.8195H116.982ZM123.264 29.2875C123.264 29.7555 123.192 30.2055 123.048 30.6195C122.904 31.0335 122.688 31.3935 122.418 31.6995C122.148 32.0055 121.824 32.2395 121.428 32.4195C121.032 32.5995 120.582 32.6715 120.078 32.6715C119.61 32.6715 119.178 32.5995 118.782 32.4195C118.386 32.2395 118.044 32.0055 117.756 31.6995C117.468 31.4115 117.234 31.0515 117.072 30.6375C116.91 30.2235 116.838 29.7735 116.838 29.2875C116.838 28.8195 116.91 28.3695 117.072 27.9555C117.234 27.5415 117.468 27.1815 117.756 26.8755C118.044 26.5695 118.386 26.3355 118.782 26.1555C119.178 25.9755 119.61 25.8855 120.078 25.8855C120.582 25.8855 121.032 25.9755 121.428 26.1555C121.824 26.3355 122.148 26.5875 122.418 26.8935C122.688 27.1995 122.904 27.5595 123.048 27.9735C123.192 28.3875 123.264 28.8195 123.264 29.2875ZM130.525 32.1855L127.663 25.0755H126.295L129.895 33.4815L129.211 35.2455C129.031 35.7315 128.815 36.1095 128.581 36.3615C128.329 36.6135 128.005 36.7395 127.591 36.7395C127.267 36.7395 126.979 36.7035 126.691 36.5955L126.565 37.7115C126.925 37.7835 127.285 37.8195 127.663 37.8195C128.383 37.8195 128.941 37.6395 129.337 37.2435C129.733 36.8475 130.057 36.3255 130.309 35.6775L134.503 25.0755H133.171L130.561 32.1855H130.525ZM137.111 27.0195C137.183 26.7855 137.327 26.5695 137.525 26.3715C137.669 26.2095 137.885 26.0655 138.173 25.9215C138.443 25.7775 138.803 25.7055 139.235 25.7055C139.559 25.7055 139.829 25.7595 140.081 25.8495C140.315 25.9395 140.513 26.0475 140.657 26.1915C140.801 26.3355 140.927 26.5155 140.999 26.6955C141.071 26.8935 141.107 27.0915 141.107 27.2895C141.107 27.7935 140.909 28.1715 140.549 28.4235C140.171 28.6755 139.721 28.7835 139.181 28.7835H138.281V29.7195H139.361C140.081 29.7195 140.603 29.8635 140.909 30.1515C141.215 30.4395 141.377 30.7635 141.377 31.1595C141.377 31.6455 141.179 32.0235 140.819 32.3115C140.441 32.5995 139.937 32.7435 139.289 32.7435C138.821 32.7435 138.425 32.6895 138.119 32.5455C137.813 32.4195 137.579 32.2755 137.417 32.0955C137.201 31.9155 137.039 31.6815 136.949 31.4295L135.959 32.0415C136.085 32.3655 136.301 32.6535 136.589 32.8875C136.823 33.1035 137.147 33.2835 137.561 33.4635C137.975 33.6435 138.515 33.7155 139.163 33.7155C140.207 33.7155 141.053 33.4815 141.665 32.9955C142.277 32.5275 142.583 31.8975 142.583 31.1415C142.583 30.8175 142.511 30.5295 142.385 30.2775C142.241 30.0435 142.061 29.8455 141.845 29.6835C141.629 29.5395 141.359 29.4135 141.071 29.3415C140.765 29.2695 140.459 29.2335 140.135 29.2335V29.1795C140.423 29.1795 140.711 29.1075 140.981 28.9995C141.233 28.8915 141.467 28.7475 141.665 28.5675C141.845 28.3875 142.007 28.1895 142.115 27.9375C142.223 27.7035 142.277 27.4515 142.277 27.1635C142.277 26.9115 142.205 26.6415 142.097 26.3535C141.989 26.0655 141.809 25.8135 141.575 25.5795C141.323 25.3455 141.017 25.1475 140.639 25.0035C140.243 24.8595 139.793 24.7875 139.253 24.7875C138.641 24.7875 138.137 24.8775 137.741 25.0575C137.345 25.2375 137.021 25.4175 136.787 25.6155C136.499 25.8675 136.301 26.1375 136.157 26.4435L137.111 27.0195ZM146.786 28.5315V25.0755H145.562V33.4995H146.786V29.5755C147.434 29.5935 148.028 29.6655 148.55 29.7915C149.054 29.9175 149.504 30.1335 149.9 30.4395C150.296 30.7455 150.62 31.1415 150.872 31.6455C151.124 32.1495 151.34 32.7615 151.52 33.4995H152.888C152.564 32.2395 152.114 31.2495 151.574 30.4935C151.016 29.7375 150.242 29.2155 149.252 28.8915L152.528 25.0755H151.16L148.136 28.6395C147.704 28.5675 147.254 28.5315 146.786 28.5315ZM161.16 28.0635V28.3335C160.386 28.3335 159.648 28.3695 158.928 28.4235C158.208 28.4775 157.578 28.6035 157.038 28.7835C156.48 28.9635 156.03 29.2515 155.706 29.6295C155.382 30.0075 155.22 30.5115 155.22 31.1595C155.22 31.6275 155.31 32.0235 155.49 32.3475C155.67 32.6715 155.904 32.9415 156.192 33.1395C156.48 33.3555 156.786 33.4995 157.128 33.5895C157.47 33.6795 157.812 33.7155 158.136 33.7155C158.82 33.7155 159.396 33.6075 159.882 33.3555C160.368 33.1035 160.8 32.7075 161.196 32.1315H161.232C161.232 32.3655 161.232 32.5995 161.268 32.8335C161.286 33.0855 161.322 33.3015 161.358 33.4995H162.456C162.402 33.2655 162.366 32.9775 162.348 32.6175C162.312 32.2755 162.312 31.9335 162.312 31.6095V27.9195C162.312 27.4155 162.222 26.9655 162.06 26.5695C161.88 26.1915 161.646 25.8675 161.358 25.6155C161.052 25.3635 160.71 25.1835 160.314 25.0575C159.918 24.9315 159.486 24.8595 159.036 24.8595C158.316 24.8595 157.668 24.9855 157.092 25.2015C156.516 25.4355 156.066 25.7235 155.724 26.0655L156.408 26.8755C156.696 26.5875 157.074 26.3355 157.506 26.1555C157.938 25.9755 158.406 25.8855 158.91 25.8855C159.63 25.8855 160.188 26.0655 160.584 26.4255C160.962 26.7855 161.16 27.3435 161.16 28.0635ZM160.8 29.2875H161.16V29.9175C161.16 30.2955 161.088 30.6555 160.98 30.9795C160.854 31.3215 160.674 31.6275 160.458 31.8795C160.224 32.1315 159.936 32.3475 159.612 32.4915C159.27 32.6355 158.892 32.7075 158.46 32.7075C158.208 32.7075 157.974 32.6895 157.74 32.6355C157.506 32.5815 157.29 32.4915 157.11 32.3655C156.912 32.2395 156.75 32.0775 156.642 31.8615C156.534 31.6635 156.48 31.4115 156.48 31.1055C156.48 30.7095 156.606 30.4035 156.876 30.1515C157.128 29.9175 157.47 29.7375 157.884 29.6115C158.298 29.4855 158.766 29.3955 159.27 29.3595C159.774 29.3235 160.296 29.2875 160.8 29.2875ZM177.206 26.6415V33.4995H178.466V25.0755H177.206L172.04 31.6815V25.0755H170.78V33.4995H172.04L177.206 26.6415ZM182.322 27.0195C182.394 26.7855 182.538 26.5695 182.736 26.3715C182.88 26.2095 183.096 26.0655 183.384 25.9215C183.654 25.7775 184.014 25.7055 184.446 25.7055C184.77 25.7055 185.04 25.7595 185.292 25.8495C185.526 25.9395 185.724 26.0475 185.868 26.1915C186.012 26.3355 186.138 26.5155 186.21 26.6955C186.282 26.8935 186.318 27.0915 186.318 27.2895C186.318 27.7935 186.12 28.1715 185.76 28.4235C185.382 28.6755 184.932 28.7835 184.392 28.7835H183.492V29.7195H184.572C185.292 29.7195 185.814 29.8635 186.12 30.1515C186.426 30.4395 186.588 30.7635 186.588 31.1595C186.588 31.6455 186.39 32.0235 186.03 32.3115C185.652 32.5995 185.148 32.7435 184.5 32.7435C184.032 32.7435 183.636 32.6895 183.33 32.5455C183.024 32.4195 182.79 32.2755 182.628 32.0955C182.412 31.9155 182.25 31.6815 182.16 31.4295L181.17 32.0415C181.296 32.3655 181.512 32.6535 181.8 32.8875C182.034 33.1035 182.358 33.2835 182.772 33.4635C183.186 33.6435 183.726 33.7155 184.374 33.7155C185.418 33.7155 186.264 33.4815 186.876 32.9955C187.488 32.5275 187.794 31.8975 187.794 31.1415C187.794 30.8175 187.722 30.5295 187.596 30.2775C187.452 30.0435 187.272 29.8455 187.056 29.6835C186.84 29.5395 186.57 29.4135 186.282 29.3415C185.976 29.2695 185.67 29.2335 185.346 29.2335V29.1795C185.634 29.1795 185.922 29.1075 186.192 28.9995C186.444 28.8915 186.678 28.7475 186.876 28.5675C187.056 28.3875 187.218 28.1895 187.326 27.9375C187.434 27.7035 187.488 27.4515 187.488 27.1635C187.488 26.9115 187.416 26.6415 187.308 26.3535C187.2 26.0655 187.02 25.8135 186.786 25.5795C186.534 25.3455 186.228 25.1475 185.85 25.0035C185.454 24.8595 185.004 24.7875 184.464 24.7875C183.852 24.7875 183.348 24.8775 182.952 25.0575C182.556 25.2375 182.232 25.4175 181.998 25.6155C181.71 25.8675 181.512 26.1375 181.368 26.4435L182.322 27.0195ZM199.19 23.3835V33.4995H201.35V20.7555H199.388L195.41 23.9595L196.67 25.4535L199.19 23.3835ZM217.072 31.6095L215.452 30.2235C215.092 30.7275 214.642 31.1235 214.102 31.3935C213.544 31.6635 212.932 31.7895 212.284 31.7895C211.6 31.7895 211.006 31.6815 210.466 31.4295C209.926 31.1955 209.458 30.8715 209.08 30.4395C208.702 30.0255 208.414 29.5395 208.198 28.9635C207.982 28.3875 207.892 27.7755 207.892 27.1095C207.892 26.4615 207.982 25.8675 208.198 25.2915C208.414 24.7335 208.702 24.2475 209.098 23.8155C209.476 23.4015 209.944 23.0775 210.484 22.8255C211.024 22.5735 211.618 22.4475 212.302 22.4475C212.95 22.4475 213.526 22.5915 214.066 22.8435C214.588 23.1135 214.984 23.4555 215.272 23.8515L216.892 22.3575C216.388 21.7455 215.722 21.2775 214.876 20.9355C214.03 20.5935 213.148 20.4135 212.23 20.4135C211.258 20.4135 210.376 20.5755 209.548 20.8995C208.72 21.2235 208 21.6915 207.388 22.2675C206.776 22.8615 206.308 23.5635 205.966 24.3915C205.606 25.2195 205.444 26.1195 205.444 27.1095C205.444 28.0995 205.606 28.9995 205.948 29.8275C206.29 30.6555 206.758 31.3755 207.37 31.9695C207.964 32.5635 208.684 33.0315 209.512 33.3555C210.34 33.6795 211.24 33.8415 212.212 33.8415C213.328 33.8415 214.282 33.6435 215.092 33.2115C215.902 32.7975 216.568 32.2575 217.072 31.6095Z" fill="black"/>
<path d="M12 20.4995V34.4995M5 27.4995H19" stroke="url(#paint5_linear_1503:2695)" stroke-width="2" stroke-linecap="round" stroke-linejoin="round"/>
<defs>
<linearGradient id="paint0_linear_1503:2695" x1="57.2792" y1="5.09985" x2="57.2792" y2="50.0156" gradientUnits="userSpaceOnUse">
<stop stop-color="#00B8F0"/>
<stop offset="0.0001" stop-color="#00B8F0"/>
<stop offset="0.739583" stop-color="#B2EEFC"/>
</linearGradient>
<linearGradient id="paint1_linear_1503:2695" x1="57.2792" y1="33.8096" x2="57.2792" y2="41.7034" gradientUnits="userSpaceOnUse">
<stop stop-color="#F86CA2"/>
<stop offset="1" stop-color="#FA9EC2"/>
</linearGradient>
<linearGradient id="paint2_linear_1503:2695" x1="57.2792" y1="33.8096" x2="57.2792" y2="41.7034" gradientUnits="userSpaceOnUse">
<stop stop-color="#F86CA2"/>
<stop offset="1" stop-color="#FA9EC2"/>
</linearGradient>
<linearGradient id="paint3_linear_1503:2695" x1="57.2792" y1="33.8096" x2="57.2792" y2="41.7034" gradientUnits="userSpaceOnUse">
<stop stop-color="#F86CA2"/>
<stop offset="1" stop-color="#FA9EC2"/>
</linearGradient>
<linearGradient id="paint4_linear_1503:2695" x1="44.847" y1="16.7877" x2="44.847" y2="4.98393" gradientUnits="userSpaceOnUse">
<stop stop-color="#1792C7"/>
<stop offset="1" stop-color="#00B8F0"/>
</linearGradient>
<linearGradient id="paint5_linear_1503:2695" x1="12" y1="20.4995" x2="12" y2="34.4995" gradientUnits="userSpaceOnUse">
<stop stop-color="#1792C7"/>
<stop offset="1" stop-color="#00B8F0"/>
</linearGradient>
</defs>
</svg>
