<svg width="440" height="48" viewBox="0 0 440 48" fill="none" xmlns="http://www.w3.org/2000/svg">
<path d="M0 24C0 10.7452 10.7452 0 24 0H416C429.255 0 440 10.7452 440 24C440 37.2548 429.255 48 416 48H24C10.7452 48 0 37.2548 0 24Z" fill="#F3F9FF"/>
<path opacity="0.6" d="M21.504 17.672H24.88C25.3067 17.672 25.7387 17.72 26.176 17.816C26.6133 17.9013 27.0027 18.056 27.344 18.28C27.696 18.4933 27.9787 18.7867 28.192 19.16C28.416 19.5333 28.528 20.0027 28.528 20.568C28.528 21.1653 28.3467 21.688 27.984 22.136C27.6213 22.5733 27.136 22.8613 26.528 23V23.032C27.264 23.1173 27.872 23.4053 28.352 23.896C28.8427 24.376 29.088 25.032 29.088 25.864C29.088 26.3333 28.9867 26.7653 28.784 27.16C28.592 27.544 28.3147 27.8747 27.952 28.152C27.5893 28.4187 27.1467 28.6267 26.624 28.776C26.1013 28.9253 25.5147 29 24.864 29H21.504V17.672ZM22.656 22.632H24.976C25.2533 22.632 25.5307 22.6 25.808 22.536C26.096 22.472 26.3573 22.3653 26.592 22.216C26.8267 22.056 27.0133 21.848 27.152 21.592C27.3013 21.336 27.376 21.0213 27.376 20.648C27.376 20.2853 27.3013 19.9813 27.152 19.736C27.0133 19.48 26.8213 19.272 26.576 19.112C26.3307 18.952 26.0427 18.84 25.712 18.776C25.3813 18.7013 25.0293 18.664 24.656 18.664H22.656V22.632ZM22.656 28.008H24.8C25.216 28.008 25.6107 27.9707 25.984 27.896C26.368 27.8107 26.6987 27.6827 26.976 27.512C27.264 27.3307 27.4933 27.1013 27.664 26.824C27.8347 26.536 27.92 26.1947 27.92 25.8C27.92 25.0533 27.664 24.4987 27.152 24.136C26.6507 23.7627 25.936 23.576 25.008 23.576H22.656V28.008ZM35.9319 29H32.5079V21.512H35.7399C36.6892 21.512 37.3932 21.6987 37.8519 22.072C38.3105 22.4347 38.5399 22.92 38.5399 23.528C38.5399 23.8053 38.4972 24.04 38.4119 24.232C38.3265 24.4133 38.2039 24.568 38.0439 24.696C37.8945 24.8133 37.7185 24.9093 37.5159 24.984C37.3132 25.0587 37.0999 25.128 36.8759 25.192C37.1532 25.2133 37.4145 25.2613 37.6599 25.336C37.9052 25.4107 38.1185 25.5227 38.2999 25.672C38.4919 25.8107 38.6412 25.992 38.7479 26.216C38.8545 26.4293 38.9079 26.6907 38.9079 27C38.9079 27.608 38.6572 28.0933 38.1559 28.456C37.6545 28.8187 36.9132 29 35.9319 29ZM33.5959 28.12H34.9879C35.3825 28.12 35.7452 28.1147 36.0759 28.104C36.4065 28.0827 36.6945 28.0347 36.9399 27.96C37.1852 27.8747 37.3772 27.7467 37.5159 27.576C37.6545 27.4053 37.7239 27.1653 37.7239 26.856C37.7239 26.344 37.5319 26.008 37.1479 25.848C36.7745 25.688 36.2679 25.608 35.6279 25.608H33.5959V28.12ZM35.6759 24.824C36.2092 24.824 36.6252 24.744 36.9239 24.584C37.2332 24.4133 37.3879 24.0827 37.3879 23.592C37.3879 23.3147 37.3292 23.096 37.2119 22.936C37.0945 22.776 36.9292 22.6587 36.7159 22.584C36.5025 22.4987 36.2465 22.4453 35.9479 22.424C35.6492 22.4027 35.3185 22.392 34.9559 22.392H33.5959V24.824H35.6759ZM47.9001 24.68C47.8681 23.976 47.6388 23.3947 47.2121 22.936C46.7961 22.4667 46.1988 22.232 45.4201 22.232C45.0575 22.232 44.7215 22.3013 44.4121 22.44C44.1028 22.568 43.8308 22.7493 43.5961 22.984C43.3615 23.208 43.1748 23.4693 43.0361 23.768C42.8975 24.056 42.8175 24.36 42.7961 24.68H47.9001ZM49.0041 25.032C49.0041 25.1067 49.0041 25.1867 49.0041 25.272C49.0041 25.3573 48.9988 25.448 48.9881 25.544H42.7801C42.7908 25.9173 42.8655 26.2693 43.0041 26.6C43.1428 26.9307 43.3348 27.2187 43.5801 27.464C43.8255 27.7093 44.1135 27.9067 44.4441 28.056C44.7748 28.1947 45.1321 28.264 45.5161 28.264C46.0815 28.264 46.5668 28.136 46.9721 27.88C47.3881 27.6133 47.7028 27.3093 47.9161 26.968L48.7321 27.608C48.2841 28.1733 47.7881 28.5787 47.2441 28.824C46.7108 29.0693 46.1348 29.192 45.5161 29.192C44.9615 29.192 44.4441 29.096 43.9641 28.904C43.4948 28.7013 43.0895 28.424 42.7481 28.072C42.4068 27.72 42.1348 27.304 41.9321 26.824C41.7401 26.344 41.6441 25.8213 41.6441 25.256C41.6441 24.6907 41.7401 24.168 41.9321 23.688C42.1241 23.208 42.3908 22.792 42.7321 22.44C43.0735 22.088 43.4735 21.816 43.9321 21.624C44.3908 21.4213 44.8868 21.32 45.4201 21.32C46.0068 21.32 46.5241 21.4213 46.9721 21.624C47.4201 21.816 47.7935 22.0827 48.0921 22.424C48.3908 22.7547 48.6148 23.144 48.7641 23.592C48.9241 24.04 49.0041 24.52 49.0041 25.032ZM51.9364 31.224H50.8644V28.056H52.0644L54.8164 21.512H55.7764L58.3204 28.056H59.5684V31.224H58.5124V29H51.9364V31.224ZM53.1684 28.056H57.2324L55.2644 22.824L53.1684 28.056ZM67.6155 22.904L63.0235 29H61.9035V21.512H63.0235V27.384L67.6155 21.512H68.7355V29H67.6155V22.904ZM71.2256 21.512H77.8016V22.424H74.9696V29H73.8816V22.424H71.2256V21.512ZM86.0682 24.68C86.0362 23.976 85.8069 23.3947 85.3802 22.936C84.9642 22.4667 84.3669 22.232 83.5882 22.232C83.2256 22.232 82.8896 22.3013 82.5802 22.44C82.2709 22.568 81.9989 22.7493 81.7642 22.984C81.5296 23.208 81.3429 23.4693 81.2042 23.768C81.0656 24.056 80.9856 24.36 80.9642 24.68H86.0682ZM87.1722 25.032C87.1722 25.1067 87.1722 25.1867 87.1722 25.272C87.1722 25.3573 87.1669 25.448 87.1562 25.544H80.9482C80.9589 25.9173 81.0336 26.2693 81.1722 26.6C81.3109 26.9307 81.5029 27.2187 81.7482 27.464C81.9936 27.7093 82.2816 27.9067 82.6122 28.056C82.9429 28.1947 83.3002 28.264 83.6842 28.264C84.2496 28.264 84.7349 28.136 85.1402 27.88C85.5562 27.6133 85.8709 27.3093 86.0842 26.968L86.9002 27.608C86.4522 28.1733 85.9562 28.5787 85.4122 28.824C84.8789 29.0693 84.3029 29.192 83.6842 29.192C83.1296 29.192 82.6122 29.096 82.1322 28.904C81.6629 28.7013 81.2576 28.424 80.9162 28.072C80.5749 27.72 80.3029 27.304 80.1002 26.824C79.9082 26.344 79.8122 25.8213 79.8122 25.256C79.8122 24.6907 79.9082 24.168 80.1002 23.688C80.2922 23.208 80.5589 22.792 80.9002 22.44C81.2416 22.088 81.6416 21.816 82.1002 21.624C82.5589 21.4213 83.0549 21.32 83.5882 21.32C84.1749 21.32 84.6922 21.4213 85.1402 21.624C85.5882 21.816 85.9616 22.0827 86.2602 22.424C86.5589 22.7547 86.7829 23.144 86.9322 23.592C87.0922 24.04 87.1722 24.52 87.1722 25.032ZM101.145 24.68C101.113 23.976 100.883 23.3947 100.457 22.936C100.041 22.4667 99.4432 22.232 98.6645 22.232C98.3018 22.232 97.9658 22.3013 97.6565 22.44C97.3472 22.568 97.0752 22.7493 96.8405 22.984C96.6058 23.208 96.4192 23.4693 96.2805 23.768C96.1418 24.056 96.0618 24.36 96.0405 24.68H101.145ZM102.249 25.032C102.249 25.1067 102.249 25.1867 102.249 25.272C102.249 25.3573 102.243 25.448 102.233 25.544H96.0245C96.0352 25.9173 96.1098 26.2693 96.2485 26.6C96.3872 26.9307 96.5792 27.2187 96.8245 27.464C97.0698 27.7093 97.3578 27.9067 97.6885 28.056C98.0192 28.1947 98.3765 28.264 98.7605 28.264C99.3258 28.264 99.8112 28.136 100.217 27.88C100.633 27.6133 100.947 27.3093 101.161 26.968L101.977 27.608C101.529 28.1733 101.033 28.5787 100.489 28.824C99.9552 29.0693 99.3792 29.192 98.7605 29.192C98.2058 29.192 97.6885 29.096 97.2085 28.904C96.7392 28.7013 96.3338 28.424 95.9925 28.072C95.6512 27.72 95.3792 27.304 95.1765 26.824C94.9845 26.344 94.8885 25.8213 94.8885 25.256C94.8885 24.6907 94.9845 24.168 95.1765 23.688C95.3685 23.208 95.6352 22.792 95.9765 22.44C96.3178 22.088 96.7178 21.816 97.1765 21.624C97.6352 21.4213 98.1312 21.32 98.6645 21.32C99.2512 21.32 99.7685 21.4213 100.217 21.624C100.665 21.816 101.038 22.0827 101.337 22.424C101.635 22.7547 101.859 23.144 102.009 23.592C102.169 24.04 102.249 24.52 102.249 25.032ZM106.621 22.792C106.834 22.3547 107.159 22.0027 107.597 21.736C108.045 21.4587 108.541 21.32 109.085 21.32C109.287 21.32 109.495 21.3413 109.709 21.384C109.933 21.4267 110.146 21.512 110.349 21.64C110.562 21.7573 110.754 21.9173 110.925 22.12C111.106 22.3227 111.261 22.584 111.389 22.904C111.645 22.392 111.991 22.0027 112.429 21.736C112.877 21.4587 113.405 21.32 114.013 21.32C114.962 21.32 115.671 21.6027 116.141 22.168C116.621 22.7333 116.861 23.48 116.861 24.408V29H115.773V24.856C115.773 24.0667 115.623 23.432 115.325 22.952C115.037 22.472 114.541 22.232 113.837 22.232C113.442 22.232 113.106 22.312 112.829 22.472C112.562 22.632 112.343 22.8453 112.173 23.112C112.013 23.368 111.895 23.6613 111.821 23.992C111.746 24.3227 111.709 24.664 111.709 25.016V29H110.621V24.632C110.621 24.2693 110.594 23.9387 110.541 23.64C110.487 23.3413 110.391 23.0907 110.253 22.888C110.125 22.6747 109.943 22.5147 109.709 22.408C109.474 22.2907 109.175 22.232 108.813 22.232C108.557 22.232 108.295 22.2907 108.029 22.408C107.773 22.5253 107.538 22.7067 107.325 22.952C107.122 23.1867 106.957 23.4907 106.829 23.864C106.701 24.2267 106.637 24.6587 106.637 25.16V29H105.549V23.16C105.549 22.9573 105.543 22.696 105.533 22.376C105.522 22.056 105.506 21.768 105.485 21.512H106.525C106.546 21.7147 106.562 21.9387 106.573 22.184C106.583 22.4293 106.589 22.632 106.589 22.792H106.621ZM125.354 24.168C125.354 23.5173 125.183 23.032 124.842 22.712C124.5 22.392 124.004 22.232 123.354 22.232C122.906 22.232 122.49 22.312 122.106 22.472C121.722 22.632 121.396 22.8453 121.13 23.112L120.522 22.392C120.831 22.0827 121.236 21.8267 121.738 21.624C122.25 21.4213 122.826 21.32 123.466 21.32C123.871 21.32 124.25 21.3787 124.602 21.496C124.954 21.6027 125.263 21.768 125.53 21.992C125.796 22.216 126.004 22.4987 126.154 22.84C126.303 23.1813 126.378 23.5813 126.378 24.04V27.32C126.378 27.608 126.388 27.9067 126.41 28.216C126.431 28.5253 126.463 28.7867 126.506 29H125.53C125.498 28.8187 125.471 28.6213 125.45 28.408C125.428 28.1947 125.418 27.9867 125.418 27.784H125.386C125.044 28.2853 124.655 28.648 124.218 28.872C123.791 29.0853 123.274 29.192 122.666 29.192C122.378 29.192 122.079 29.1493 121.77 29.064C121.471 28.9893 121.194 28.8613 120.938 28.68C120.692 28.4987 120.484 28.264 120.314 27.976C120.154 27.688 120.074 27.336 120.074 26.92C120.074 26.344 120.218 25.8907 120.506 25.56C120.804 25.2187 121.199 24.968 121.69 24.808C122.18 24.6373 122.74 24.5307 123.37 24.488C124.01 24.4347 124.671 24.408 125.354 24.408V24.168ZM125.034 25.256C124.586 25.256 124.132 25.2773 123.674 25.32C123.226 25.352 122.815 25.4267 122.442 25.544C122.079 25.6507 121.78 25.8107 121.546 26.024C121.311 26.2373 121.194 26.52 121.194 26.872C121.194 27.1387 121.242 27.3627 121.338 27.544C121.444 27.7253 121.583 27.8747 121.754 27.992C121.924 28.0987 122.111 28.1787 122.314 28.232C122.527 28.2747 122.74 28.296 122.954 28.296C123.338 28.296 123.679 28.232 123.978 28.104C124.276 27.9653 124.527 27.784 124.73 27.56C124.932 27.3253 125.087 27.0587 125.194 26.76C125.3 26.4613 125.354 26.1467 125.354 25.816V25.256H125.034ZM131.245 29H130.157V21.512H131.245V29ZM131.469 18.632C131.469 18.856 131.389 19.0427 131.229 19.192C131.069 19.3307 130.893 19.4 130.701 19.4C130.509 19.4 130.333 19.3307 130.173 19.192C130.013 19.0427 129.933 18.856 129.933 18.632C129.933 18.408 130.013 18.2267 130.173 18.088C130.333 17.9387 130.509 17.864 130.701 17.864C130.893 17.864 131.069 17.9387 131.229 18.088C131.389 18.2267 131.469 18.408 131.469 18.632ZM136.221 29H135.133V16.904H136.221V29Z" fill="#1792C7"/>
<path d="M279 24C279 10.7452 289.745 0 303 0H416C429.255 0 440 10.7452 440 24C440 37.2548 429.255 48 416 48H303C289.745 48 279 37.2548 279 24Z" fill="url(#paint0_linear)"/>
<path d="M334.534 17.672L337.494 24.136L340.358 17.672H342.55L338.47 26.536C338.289 26.9307 338.092 27.2933 337.878 27.624C337.665 27.9547 337.414 28.2427 337.126 28.488C336.838 28.7227 336.508 28.9093 336.134 29.048C335.772 29.1867 335.35 29.256 334.87 29.256C334.529 29.256 334.236 29.2293 333.99 29.176C333.756 29.1333 333.553 29.0747 333.382 29C333.222 28.9253 333.084 28.8453 332.966 28.76C332.849 28.6747 332.748 28.5947 332.662 28.52L333.83 27.048C333.948 27.1547 334.102 27.2667 334.294 27.384C334.497 27.5013 334.737 27.56 335.014 27.56C335.313 27.56 335.574 27.4693 335.798 27.288C336.022 27.096 336.236 26.8187 336.438 26.456L332.31 17.672H334.534ZM344.584 23.432L343.4 22.584C343.453 22.488 343.544 22.3493 343.672 22.168C343.81 21.9867 344.002 21.8107 344.248 21.64C344.493 21.4587 344.808 21.304 345.192 21.176C345.576 21.0373 346.04 20.968 346.584 20.968C347.106 20.968 347.565 21.0267 347.96 21.144C348.365 21.2507 348.701 21.4053 348.968 21.608C349.234 21.8107 349.432 22.0453 349.56 22.312C349.698 22.5787 349.768 22.8667 349.768 23.176C349.768 23.4427 349.72 23.6827 349.624 23.896C349.528 24.1093 349.405 24.2907 349.256 24.44C349.106 24.5893 348.93 24.7173 348.728 24.824C348.525 24.92 348.322 24.9893 348.12 25.032V25.08C348.344 25.1013 348.573 25.1493 348.808 25.224C349.042 25.2987 349.256 25.4107 349.448 25.56C349.64 25.7093 349.794 25.9013 349.912 26.136C350.04 26.36 350.104 26.6267 350.104 26.936C350.104 27.3307 350.013 27.672 349.832 27.96C349.661 28.248 349.416 28.488 349.096 28.68C348.786 28.872 348.413 29.016 347.976 29.112C347.538 29.208 347.064 29.256 346.552 29.256C346.018 29.256 345.56 29.1973 345.176 29.08C344.802 28.9627 344.488 28.8293 344.232 28.68C343.976 28.52 343.773 28.3707 343.624 28.232C343.485 28.0933 343.384 27.9973 343.32 27.944L344.344 26.84C344.397 26.8827 344.477 26.9573 344.584 27.064C344.701 27.16 344.85 27.2667 345.032 27.384C345.213 27.4907 345.426 27.5867 345.672 27.672C345.917 27.7573 346.194 27.8 346.504 27.8C347.037 27.8 347.453 27.7093 347.752 27.528C348.061 27.336 348.216 27.0693 348.216 26.728C348.216 26.3973 348.05 26.1467 347.72 25.976C347.389 25.8053 346.952 25.72 346.408 25.72H345.256V24.456H346.328C346.797 24.456 347.186 24.3867 347.496 24.248C347.816 24.1093 347.976 23.864 347.976 23.512C347.976 23.2133 347.842 22.9467 347.576 22.712C347.32 22.4773 346.92 22.36 346.376 22.36C346.034 22.36 345.746 22.4187 345.512 22.536C345.288 22.6427 345.106 22.7653 344.968 22.904C344.808 23.064 344.68 23.24 344.584 23.432ZM354.234 29H352.314V21.256H354.234V24.232H357.642V21.256H359.562V29H357.642V25.736H354.234V29ZM367.07 24.008C367.07 23.496 366.916 23.1173 366.606 22.872C366.297 22.6267 365.886 22.504 365.374 22.504C364.969 22.504 364.58 22.584 364.206 22.744C363.844 22.904 363.534 23.1067 363.278 23.352L362.286 22.248C362.681 21.8747 363.161 21.5813 363.726 21.368C364.302 21.144 364.91 21.032 365.55 21.032C366.564 21.032 367.353 21.272 367.918 21.752C368.484 22.232 368.793 22.984 368.846 24.008C368.857 24.1573 368.862 24.3067 368.862 24.456C368.873 24.6053 368.878 24.76 368.878 24.92V27.368C368.878 27.6453 368.884 27.928 368.894 28.216C368.905 28.4933 368.921 28.7547 368.942 29H367.182C367.172 28.84 367.161 28.6747 367.15 28.504C367.14 28.3333 367.134 28.1573 367.134 27.976H367.102C366.825 28.3813 366.478 28.6853 366.062 28.888C365.646 29.0907 365.166 29.192 364.622 29.192C364.324 29.192 364.009 29.1493 363.678 29.064C363.358 28.9787 363.065 28.8453 362.798 28.664C362.532 28.472 362.308 28.2267 362.126 27.928C361.956 27.6187 361.87 27.24 361.87 26.792C361.87 26.216 362.02 25.7573 362.318 25.416C362.628 25.0747 363.028 24.8133 363.518 24.632C364.02 24.4507 364.58 24.3333 365.198 24.28C365.817 24.2267 366.441 24.2 367.07 24.2V24.008ZM366.782 25.4C366.42 25.4 366.052 25.416 365.678 25.448C365.316 25.48 364.985 25.544 364.686 25.64C364.398 25.7253 364.158 25.8587 363.966 26.04C363.785 26.2107 363.694 26.44 363.694 26.728C363.694 26.9413 363.737 27.1173 363.822 27.256C363.908 27.3947 364.014 27.5067 364.142 27.592C364.281 27.6773 364.436 27.7413 364.606 27.784C364.777 27.816 364.948 27.832 365.118 27.832C365.758 27.832 366.249 27.64 366.59 27.256C366.932 26.8613 367.102 26.376 367.102 25.8V25.4H366.782ZM370.678 21.256H377.526V22.776H375.014V29H373.094V22.776H370.678V21.256ZM381.313 21.256V23.752H383.121C383.697 23.752 384.188 23.8213 384.593 23.96C384.999 24.088 385.324 24.2693 385.569 24.504C385.825 24.7387 386.007 25.016 386.113 25.336C386.231 25.656 386.289 25.9973 386.289 26.36C386.289 26.7333 386.22 27.08 386.081 27.4C385.953 27.72 385.756 27.9973 385.489 28.232C385.233 28.4667 384.913 28.6533 384.529 28.792C384.145 28.9307 383.697 29 383.185 29H379.393V21.256H381.313ZM381.313 27.608H382.769C383.249 27.608 383.639 27.5227 383.937 27.352C384.236 27.1707 384.385 26.84 384.385 26.36C384.385 26.1253 384.343 25.928 384.257 25.768C384.172 25.608 384.055 25.4853 383.905 25.4C383.756 25.304 383.58 25.24 383.377 25.208C383.185 25.1653 382.972 25.144 382.737 25.144H381.313V27.608Z" fill="white"/>
<defs>
<linearGradient id="paint0_linear" x1="359.5" y1="0" x2="359.5" y2="48" gradientUnits="userSpaceOnUse">
<stop stop-color="#1792C7"/>
<stop offset="1" stop-color="#00B8F0"/>
</linearGradient>
</defs>
</svg>
