<svg width="1440" height="6361" viewBox="0 0 1440 6361" fill="none" xmlns="http://www.w3.org/2000/svg">
<path d="M48.5 5969.15V6316.55" stroke="#3898FE" stroke-opacity="0.187528" stroke-linecap="square"/>
<path d="M118.5 6037.15V6384.55" stroke="#3898FE" stroke-opacity="0.187528" stroke-linecap="square"/>
<path d="M308.407 6036.54H-39" stroke="#3898FE" stroke-opacity="0.187528" stroke-linecap="square"/>
<path d="M308.407 6103.54H-39" stroke="#3898FE" stroke-opacity="0.187528" stroke-linecap="square" stroke-dasharray="1 1 1"/>
<path d="M188.5 5969.15V6316.55" stroke="#3898FE" stroke-opacity="0.187528" stroke-linecap="square"/>
<path d="M-305.225 3196.75L-305.214 3196.74L-305.204 3196.73L-205.814 3084.98L-205.801 3084.96L-205.789 3084.95C-186.084 3058.88 -140.12 3052.4 -113.883 3085.02L-113.853 3085.06L-113.817 3085.09L415.551 3532.69C415.554 3532.69 415.556 3532.69 415.558 3532.7C436.437 3551.72 442.943 3572.01 442.63 3589.63C442.316 3607.27 435.167 3622.27 428.676 3630.67C428.673 3630.68 428.671 3630.68 428.668 3630.68L137.131 3972.49L137.122 3972.5L137.113 3972.52C127.271 3985.53 110.851 3993.69 93.5853 3995.31C76.3251 3996.93 58.276 3992.02 45.1657 3978.98L45.1496 3978.96L45.1322 3978.95L-73.98 3880.21L-73.9899 3880.2L-74.0001 3880.19C-87.0814 3870.43 -93.6499 3854.15 -94.4612 3836.98C-95.2723 3819.82 -90.3241 3801.86 -80.4695 3788.82L78.5468 3604.77L78.8787 3604.39L78.4895 3604.06L-298.697 3288.1L-298.708 3288.09L-298.719 3288.08C-311.824 3278.3 -320.032 3261.99 -321.665 3244.84C-323.297 3227.7 -318.353 3209.77 -305.225 3196.75Z" stroke="#3898FE" stroke-opacity="0.11"/>
<path d="M-305.098 3005.76L-305.087 3005.75L-305.076 3005.74L-205.687 2893.99L-205.673 2893.97L-205.661 2893.96C-185.956 2867.89 -139.993 2861.41 -113.756 2894.03L-113.726 2894.07L-113.689 2894.1L415.679 3341.7C415.681 3341.7 415.683 3341.7 415.685 3341.71C436.565 3360.73 443.071 3381.02 442.758 3398.64C442.444 3416.28 435.295 3431.28 428.803 3439.68C428.801 3439.69 428.798 3439.69 428.796 3439.69L137.259 3781.5L137.249 3781.51L137.24 3781.53C127.398 3794.54 110.978 3802.7 93.7128 3804.32C76.4526 3805.94 58.4036 3801.03 45.2933 3787.99L45.2772 3787.97L45.2598 3787.96L-73.8525 3689.22L-73.8623 3689.21L-73.8726 3689.2C-86.9539 3679.44 -93.5223 3663.16 -94.3337 3645.99C-95.1447 3628.83 -90.1966 3610.87 -80.342 3597.83L78.6744 3413.78L79.0063 3413.4L78.6171 3413.07L-298.569 3097.11L-298.58 3097.1L-298.591 3097.09C-311.697 3087.31 -319.905 3071 -321.537 3053.85C-323.169 3036.71 -318.225 3018.78 -305.098 3005.76Z" stroke="#3898FE" stroke-opacity="0.11"/>
<path d="M1248.02 86.2829L1248.04 86.2961L1248.05 86.3081C1266.96 100.585 1271.69 133.92 1248.04 152.965L1248 152.995L1247.97 153.032L922.552 538.421C922.55 538.424 922.548 538.426 922.546 538.428C908.74 553.599 894.019 558.326 881.239 558.107C868.44 557.888 857.551 552.708 851.45 548.004C851.447 548.002 851.443 547.999 851.44 547.997L602.599 336.04L602.587 336.031L602.576 336.022C593.134 328.894 587.207 316.988 586.022 304.458C584.837 291.933 588.394 278.84 597.843 269.328L597.859 269.312L597.874 269.294L669.66 182.579L669.669 182.569L669.676 182.559C676.74 173.078 688.543 168.302 701.005 167.704C713.461 167.107 726.496 170.691 735.962 177.832L869.951 293.442L870.336 293.773L870.662 293.384L1100.38 18.7843L1100.39 18.7735L1100.4 18.7622C1107.48 9.25748 1119.3 3.29288 1131.75 2.09978C1144.19 0.907214 1157.19 4.48668 1166.64 13.9983L1166.65 14.0094L1166.66 14.0197L1248.02 86.2829Z" stroke="#3898FE" stroke-opacity="0.11"/>
<path d="M1386.99 86.2829L1387 86.2961L1387.02 86.3081C1405.93 100.585 1410.66 133.92 1387.01 152.965L1386.97 152.995L1386.94 153.032L1061.52 538.421C1061.52 538.424 1061.51 538.426 1061.51 538.428C1047.71 553.599 1032.99 558.326 1020.21 558.107C1007.41 557.888 996.517 552.708 990.416 548.004C990.413 548.002 990.41 547.999 990.407 547.997L741.565 336.04L741.554 336.031L741.542 336.022C732.101 328.894 726.174 316.988 724.988 304.458C723.803 291.933 727.36 278.84 736.81 269.328L736.826 269.312L736.84 269.294L808.627 182.579L808.635 182.569L808.643 182.559C815.707 173.078 827.509 168.302 839.972 167.704C852.427 167.107 865.463 170.691 874.929 177.832L1008.92 293.442L1009.3 293.773L1009.63 293.384L1239.35 18.7843L1239.35 18.7735L1239.36 18.7622C1246.44 9.25748 1258.27 3.29288 1270.72 2.09978C1283.15 0.907214 1296.16 4.48668 1305.61 13.9983L1305.62 14.0094L1305.63 14.0197L1386.99 86.2829Z" stroke="#3898FE" stroke-opacity="0.11"/>
<path d="M1394.97 2655L1394.98 2655.01L1394.99 2655.02L1476.35 2727.28L1476.37 2727.3L1476.38 2727.31C1495.29 2741.59 1500.02 2774.92 1476.37 2793.97L1476.33 2794L1476.3 2794.03L1150.88 3179.42C1150.88 3179.42 1150.88 3179.43 1150.88 3179.43C1137.07 3194.6 1122.35 3199.33 1109.57 3199.11C1096.77 3198.89 1085.88 3193.71 1079.78 3189C1079.78 3189 1079.77 3189 1079.77 3189L830.928 2977.04L830.917 2977.03L830.906 2977.02C821.464 2969.89 815.537 2957.99 814.352 2945.46C813.167 2932.93 816.724 2919.84 826.173 2910.33L826.189 2910.31L826.204 2910.29L897.99 2823.58L897.998 2823.57L898.006 2823.56C905.07 2814.08 916.873 2809.3 929.335 2808.7C941.79 2808.11 954.826 2811.69 964.292 2818.83L1098.28 2934.44L1098.67 2934.77L1098.99 2934.38L1328.71 2659.78L1328.72 2659.77L1328.73 2659.76C1335.81 2650.26 1347.63 2644.29 1360.08 2643.1C1372.52 2641.91 1385.52 2645.49 1394.97 2655Z" stroke="#3898FE" stroke-opacity="0.11"/>
<path d="M1533.94 2655L1533.95 2655.01L1533.96 2655.02L1615.32 2727.28L1615.33 2727.3L1615.35 2727.31C1634.26 2741.59 1638.99 2774.92 1615.34 2793.97L1615.3 2794L1615.27 2794.03L1289.85 3179.42C1289.85 3179.42 1289.84 3179.43 1289.84 3179.43C1276.04 3194.6 1261.32 3199.33 1248.53 3199.11C1235.74 3198.89 1224.85 3193.71 1218.75 3189C1218.74 3189 1218.74 3189 1218.74 3189L969.895 2977.04L969.884 2977.03L969.872 2977.02C960.43 2969.89 954.504 2957.99 953.318 2945.46C952.133 2932.93 955.69 2919.84 965.14 2910.33L965.156 2910.31L965.17 2910.29L1036.96 2823.58L1036.96 2823.57L1036.97 2823.56C1044.04 2814.08 1055.84 2809.3 1068.3 2808.7C1080.76 2808.11 1093.79 2811.69 1103.26 2818.83L1237.25 2934.44L1237.63 2934.77L1237.96 2934.38L1467.68 2659.78L1467.68 2659.77L1467.69 2659.76C1474.77 2650.26 1486.6 2644.29 1499.05 2643.1C1511.48 2641.91 1524.49 2645.49 1533.94 2655Z" stroke="#3898FE" stroke-opacity="0.11"/>
<path d="M85.6996 988.533V1337.7" stroke="#3898FE" stroke-opacity="0.187528" stroke-linecap="square"/>
<path d="M155.7 1056.88V1406.04" stroke="#3898FE" stroke-opacity="0.187528" stroke-linecap="square"/>
<path d="M345.606 1056.26H-1.80042" stroke="#3898FE" stroke-opacity="0.187528" stroke-linecap="square"/>
<path d="M345.606 1123.6H-1.80042" stroke="#3898FE" stroke-opacity="0.187528" stroke-linecap="square" stroke-dasharray="1 1 1"/>
<path d="M225.7 988.533V1337.7" stroke="#3898FE" stroke-opacity="0.187528" stroke-linecap="square"/>
<path d="M295.7 988.533V1337.7" stroke="#3898FE" stroke-opacity="0.187528" stroke-linecap="square"/>
</svg>
